<?xml version="1.0" encoding="iso-8859-1"?>
<svg version="1.1" xmlns="http://www.w3.org/2000/svg" xmlns:xlink="http://www.w3.org/1999/xlink" viewBox="0 0 527.433 145">
<rect width="527.433" height="96.716"/>
<path fill="#FFD740" d="M56.639,63.965h-19.67l-3.656,9.037H19.889l20.535-46.518h12.96l20.6,46.518H60.295L56.639,63.965z
	 M52.785,54.262l-5.981-14.886l-5.981,14.886H52.785z"/>
<polygon fill="#FFD740" points="83.687,26.483 96.845,26.483 96.845,62.568 119.041,62.568 119.041,73.002 83.687,73.002 "/>
<polygon fill="#FFD740" points="130.205,26.483 143.363,26.483 143.363,62.568 165.559,62.568 165.559,73.002 130.205,73.002 "/>
<path fill="#FFD740" d="M233.21,63.965h-19.67l-3.656,9.037H196.46l20.535-46.518h12.96l20.601,46.518h-13.69L233.21,63.965z
	 M229.356,54.262l-5.98-14.886l-5.982,14.886H229.356z"/>
<g>
	<path fill="#FFD740" d="M257.202,49.743c0-14.155,10.833-24.19,25.586-24.19c8.572,0,15.483,3.124,20.003,8.773l-8.373,7.575
		c-2.924-3.522-6.513-5.449-10.965-5.449c-7.643,0-12.959,5.316-12.959,13.291c0,7.975,5.316,13.291,12.959,13.291
		c4.452,0,8.041-1.927,10.965-5.449l8.373,7.575c-4.52,5.649-11.431,8.773-20.003,8.773
		C268.034,73.933,257.202,63.898,257.202,49.743"/>
	<path fill="#FFD740" d="M311.231,49.743c0-14.155,10.832-24.19,25.586-24.19c8.571,0,15.483,3.124,20.002,8.773l-8.373,7.575
		c-2.924-3.522-6.513-5.449-10.965-5.449c-7.643,0-12.959,5.316-12.959,13.291c0,7.975,5.316,13.291,12.959,13.291
		c4.452,0,8.041-1.927,10.965-5.449l8.373,7.575c-4.519,5.649-11.431,8.773-20.002,8.773
		C322.063,73.933,311.231,63.898,311.231,49.743"/>
	<polygon fill="#FFD740" points="405.996,62.834 405.996,73.001 368.648,73.001 368.648,26.483 405.133,26.483 405.133,36.65
		381.674,36.65 381.674,44.492 402.342,44.492 402.342,54.328 381.674,54.328 381.674,62.834 	"/>
	<path fill="#FFD740" d="M416.033,68.815l4.318-9.703c4.121,2.725,9.969,4.586,15.353,4.586c5.449,0,7.575-1.529,7.575-3.788
		c0-7.377-26.449-1.993-26.449-19.272c0-8.307,6.778-15.086,20.601-15.086c6.047,0,12.294,1.396,16.88,4.055l-4.053,9.768
		c-4.454-2.392-8.84-3.588-12.894-3.588c-5.516,0-7.509,1.861-7.509,4.186c0,7.111,26.383,1.795,26.383,18.94
		c0,8.108-6.779,15.019-20.601,15.019C427.994,73.932,420.419,71.872,416.033,68.815"/>
	<path fill="#FFD740" d="M465.01,68.815l4.318-9.703c4.121,2.725,9.969,4.586,15.353,4.586c5.449,0,7.575-1.529,7.575-3.788
		c0-7.377-26.449-1.993-26.449-19.272c0-8.307,6.778-15.086,20.601-15.086c6.047,0,12.294,1.396,16.88,4.055l-4.053,9.768
		c-4.454-2.392-8.839-3.588-12.894-3.588c-5.516,0-7.509,1.861-7.509,4.186c0,7.111,26.383,1.795,26.383,18.94
		c0,8.108-6.778,15.019-20.601,15.019C476.971,73.932,469.396,71.872,465.01,68.815"/>
	<path d="M37.28,126.07c0,3.738-2.966,5.901-8.649,5.901H17.447v-21.625h10.566c5.406,0,8.186,2.255,8.186,5.622
		c0,2.163-1.112,3.831-2.873,4.758C35.735,121.498,37.28,123.352,37.28,126.07 M22.421,114.115v5.097h4.973
		c2.441,0,3.769-0.865,3.769-2.564c0-1.699-1.328-2.533-3.769-2.533H22.421z M32.245,125.545c0-1.823-1.391-2.688-3.985-2.688
		h-5.839v5.345h5.839C30.854,128.202,32.245,127.399,32.245,125.545"/>
	<path d="M43.671,122.456v-12.11h5.004v11.925c0,4.109,1.793,5.808,4.82,5.808c3.059,0,4.82-1.699,4.82-5.808v-11.925h4.943v12.11
		c0,6.364-3.646,9.886-9.794,9.886C47.317,132.342,43.671,128.82,43.671,122.456"/>
	<rect x="70.977" y="110.346" width="5.005" height="21.625"/>
	<polygon points="83.887,110.346 88.892,110.346 88.892,127.893 99.736,127.893 99.736,131.971 83.887,131.971 	"/>
	<path d="M105.323,110.346h9.825c7.073,0,11.924,4.263,11.924,10.812c0,6.55-4.851,10.813-11.924,10.813h-9.825V110.346z
		 M114.9,127.862c4.294,0,7.105-2.564,7.105-6.704c0-4.139-2.811-6.704-7.105-6.704h-4.572v13.408H114.9z"/>
	<rect x="133.617" y="110.346" width="5.004" height="21.625"/>
	<polygon points="166.361,110.346 166.361,131.971 162.253,131.971 151.471,118.842 151.471,131.971 146.528,131.971
		146.528,110.346 150.668,110.346 161.418,123.475 161.418,110.346 	"/>
	<path d="M188.877,120.818h4.572v8.773c-2.379,1.792-5.653,2.75-8.743,2.75c-6.796,0-11.801-4.665-11.801-11.183
		c0-6.519,5.005-11.183,11.894-11.183c3.8,0,6.951,1.297,9.052,3.738l-3.213,2.965c-1.575-1.668-3.399-2.44-5.592-2.44
		c-4.201,0-7.074,2.811-7.074,6.92c0,4.047,2.873,6.92,7.012,6.92c1.36,0,2.626-0.248,3.893-0.927V120.818z"/>
	<path d="M226.621,127.337h-10.039l-1.916,4.634h-5.128l9.639-21.625h4.943l9.669,21.625h-5.252L226.621,127.337z M225.047,123.537
		l-3.43-8.279l-3.428,8.279H225.047z"/>
	<path d="M237.12,129.839l1.699-3.769c1.823,1.329,4.541,2.255,7.137,2.255c2.966,0,4.171-0.988,4.171-2.317
		c0-4.046-12.574-1.266-12.574-9.298c0-3.677,2.965-6.735,9.114-6.735c2.719,0,5.498,0.649,7.506,1.915l-1.544,3.8
		c-2.008-1.143-4.078-1.699-5.993-1.699c-2.966,0-4.109,1.112-4.109,2.472c0,3.985,12.573,1.235,12.573,9.174
		c0,3.615-2.997,6.704-9.175,6.704C242.496,132.341,239.036,131.322,237.12,129.839"/>
	<path d="M276.104,127.893v4.078h-16.343v-3.244l8.341-7.878c1.916-1.823,2.256-2.935,2.256-3.985c0-1.699-1.174-2.688-3.46-2.688
		c-1.854,0-3.429,0.711-4.48,2.163l-3.645-2.348c1.669-2.44,4.696-4.016,8.588-4.016c4.82,0,8.033,2.471,8.033,6.395
		c0,2.101-0.588,4.016-3.615,6.827l-4.974,4.696H276.104z"/>
	<path d="M297.108,127.893v4.078h-16.343v-3.244l8.341-7.878c1.916-1.823,2.256-2.935,2.256-3.985c0-1.699-1.175-2.688-3.461-2.688
		c-1.853,0-3.429,0.711-4.479,2.163l-3.645-2.348c1.668-2.44,4.695-4.016,8.588-4.016c4.819,0,8.032,2.471,8.032,6.395
		c0,2.101-0.587,4.016-3.615,6.827l-4.973,4.696H297.108z"/>
	<path d="M301.893,121.158c0-7.136,3.954-11.183,9.268-11.183c5.344,0,9.267,4.047,9.267,11.183c0,7.136-3.923,11.183-9.267,11.183
		C305.847,132.341,301.893,128.294,301.893,121.158 M315.392,121.158c0-4.912-1.729-6.951-4.231-6.951
		c-2.472,0-4.202,2.039-4.202,6.951c0,4.912,1.73,6.951,4.202,6.951C313.663,128.109,315.392,126.07,315.392,121.158"/>
	<polygon points="326.078,110.346 330.186,110.346 329.847,119.119 326.387,119.119 	"/>
	<path d="M335.313,129.839l1.699-3.769c1.822,1.329,4.541,2.255,7.136,2.255c2.967,0,4.171-0.988,4.171-2.317
		c0-4.046-12.573-1.266-12.573-9.298c0-3.677,2.965-6.735,9.114-6.735c2.718,0,5.498,0.649,7.506,1.915l-1.545,3.8
		c-2.007-1.143-4.077-1.699-5.992-1.699c-2.967,0-4.11,1.112-4.11,2.472c0,3.985,12.573,1.235,12.573,9.174
		c0,3.615-2.996,6.704-9.175,6.704C340.689,132.341,337.229,131.322,335.313,129.839"/>
	<polygon points="376.025,114.362 376.025,120.077 386.034,120.077 386.034,124.093 376.025,124.093 376.025,131.971
		371.02,131.971 371.02,110.346 387.363,110.346 387.363,114.362 	"/>
	<path d="M393.352,122.456v-12.11h5.004v11.925c0,4.109,1.793,5.808,4.82,5.808c3.059,0,4.819-1.699,4.819-5.808v-11.925h4.943
		v12.11c0,6.364-3.645,9.886-9.793,9.886C396.997,132.342,393.352,128.82,393.352,122.456"/>
	<polygon points="424.765,114.424 417.845,114.424 417.845,110.346 436.689,110.346 436.689,114.424 429.77,114.424 429.77,131.971
		424.765,131.971 	"/>
	<path d="M441.599,122.456v-12.11h5.004v11.925c0,4.109,1.793,5.808,4.82,5.808c3.059,0,4.82-1.699,4.82-5.808v-11.925h4.942v12.11
		c0,6.364-3.645,9.886-9.793,9.886C445.245,132.342,441.599,128.82,441.599,122.456"/>
	<path d="M482.682,131.971l-4.171-6.025h-0.246h-4.356v6.025h-5.005v-21.625h9.361c5.777,0,9.391,2.996,9.391,7.847
		c0,3.244-1.637,5.622-4.448,6.827l4.849,6.951H482.682z M477.986,114.424h-4.077v7.538h4.077c3.059,0,4.604-1.422,4.604-3.769
		C482.59,115.814,481.045,114.424,477.986,114.424"/>
	<polygon points="511.13,127.955 511.13,131.971 494.386,131.971 494.386,110.346 510.729,110.346 510.729,114.362 499.359,114.362
		499.359,119.058 509.4,119.058 509.4,122.951 499.359,122.951 499.359,127.955 	"/>
</g>
<g>
</g>
<g>
</g>
<g>
</g>
<g>
</g>
<g>
</g>
<g>
</g>
</svg>
